<?xml version="1.0" encoding="UTF-8"?>
<svg xmlns="http://www.w3.org/2000/svg" width="1400" height="900" viewBox="0 0 1400 900">
  <defs>
    <linearGradient id="sky" x1="0" y1="0" x2="0" y2="1">
      <stop offset="0" stop-color="#160a2e"/>
      <stop offset="1" stop-color="#080616"/>
    </linearGradient>
    <radialGradient id="glow" cx="25%" cy="20%" r="60%">
      <stop offset="0" stop-color="#a855f7" stop-opacity="0.55"/>
      <stop offset="1" stop-color="#000" stop-opacity="0"/>
    </radialGradient>
    <linearGradient id="mist" x1="0" y1="0" x2="1" y2="0">
      <stop offset="0" stop-color="#ddd6fe" stop-opacity="0.10"/>
      <stop offset="1" stop-color="#a78bfa" stop-opacity="0.02"/>
    </linearGradient>
  </defs>

  <rect width="1400" height="900" fill="url(#sky)"/>
  <rect width="1400" height="900" fill="url(#glow)"/>

  <!-- Stars -->
  <g fill="#ffffff" opacity="0.35">
    <circle cx="1050.0" cy="135.0" r="1.6"/>
    <circle cx="868.0" cy="198.0" r="1.2"/>
    <circle cx="1148.0" cy="225.0" r="1.1"/>
    <circle cx="952.0000000000001" cy="270.0" r="1.4"/>
    <circle cx="1260.0" cy="162.0" r="1.3"/>
    <circle cx="770.0000000000001" cy="108.0" r="1.0"/>
  </g>

  <!-- Moon -->
  <circle cx="280.0" cy="198.0" r="63.00000000000001" fill="#f5f3ff" opacity="0.9"/>
  <circle cx="308.0" cy="189.0" r="63.00000000000001" fill="#160a2e"/>

  <!-- Mountains back -->
  <path d="M0 630.0 L252.0 405.0 L476.00000000000006 558.0 L700.0 360.0 L952.0000000000001 576.0 L1176.0 432.0 L1400 612.0 L1400 900 L0 900 Z"
        fill="#1a0f3b" opacity="0.95"/>
  <!-- Mountains mid -->
  <path d="M0 702.0 L308.0 450.0 L588.0 684.0 L840.0 414.0 L1120.0 720.0 L1400 540.0 L1400 900 L0 900 Z"
        fill="#25124f" opacity="0.92"/>
  <!-- Foreground hills -->
  <path d="M0 774.0 C210.0 702.0, 420.0 828.0, 630.0 756.0 C840.0 684.0, 1050.0 828.0, 1400 756.0 L1400 900 L0 900 Z"
        fill="#2d1461" opacity="0.95"/>

  <!-- Mist -->
  <rect x="0" y="495.00000000000006" width="1400" height="225.0" fill="url(#mist)"/>

  <text x="98.00000000000001" y="144.0" font-family="system-ui,Segoe UI,Roboto,Arial" font-size="54.0" fill="#f5f3ff" font-weight="800">Nasrulla Waleed</text>
</svg>
