<?xml version="1.0" encoding="UTF-8"?>
<svg xmlns="http://www.w3.org/2000/svg" width="1200" height="800" viewBox="0 0 1200 800">
  <defs>
    <linearGradient id="sky" x1="0" y1="0" x2="0" y2="1">
      <stop offset="0" stop-color="#160a2e"/>
      <stop offset="1" stop-color="#080616"/>
    </linearGradient>
    <radialGradient id="glow" cx="25%" cy="20%" r="60%">
      <stop offset="0" stop-color="#a855f7" stop-opacity="0.55"/>
      <stop offset="1" stop-color="#000" stop-opacity="0"/>
    </radialGradient>
    <linearGradient id="mist" x1="0" y1="0" x2="1" y2="0">
      <stop offset="0" stop-color="#ddd6fe" stop-opacity="0.10"/>
      <stop offset="1" stop-color="#a78bfa" stop-opacity="0.02"/>
    </linearGradient>
  </defs>

  <rect width="1200" height="800" fill="url(#sky)"/>
  <rect width="1200" height="800" fill="url(#glow)"/>

  <!-- Stars -->
  <g fill="#ffffff" opacity="0.35">
    <circle cx="900.0" cy="120.0" r="1.6"/>
    <circle cx="744.0" cy="176.0" r="1.2"/>
    <circle cx="983.9999999999999" cy="200.0" r="1.1"/>
    <circle cx="816.0000000000001" cy="240.0" r="1.4"/>
    <circle cx="1080.0" cy="144.0" r="1.3"/>
    <circle cx="660.0" cy="96.0" r="1.0"/>
  </g>

  <!-- Moon -->
  <circle cx="240.0" cy="176.0" r="56.00000000000001" fill="#f5f3ff" opacity="0.9"/>
  <circle cx="264.0" cy="168.0" r="56.00000000000001" fill="#160a2e"/>

  <!-- Mountains back -->
  <path d="M0 560.0 L216.0 360.0 L408.00000000000006 496.0 L600.0 320.0 L816.0000000000001 512.0 L1008.0 384.0 L1200 544.0 L1200 800 L0 800 Z"
        fill="#1a0f3b" opacity="0.95"/>
  <!-- Mountains mid -->
  <path d="M0 624.0 L264.0 400.0 L504.0 608.0 L720.0 368.0 L960.0 640.0 L1200 480.0 L1200 800 L0 800 Z"
        fill="#25124f" opacity="0.92"/>
  <!-- Foreground hills -->
  <path d="M0 688.0 C180.0 624.0, 360.0 736.0, 540.0 672.0 C720.0 608.0, 900.0 736.0, 1200 672.0 L1200 800 L0 800 Z"
        fill="#2d1461" opacity="0.95"/>

  <!-- Mist -->
  <rect x="0" y="440.00000000000006" width="1200" height="200.0" fill="url(#mist)"/>

  <text x="84.00000000000001" y="128.0" font-family="system-ui,Segoe UI,Roboto,Arial" font-size="48.0" fill="#f5f3ff" font-weight="800">Paysage 5</text>
</svg>
