<?xml version="1.0" encoding="UTF-8"?>
<svg xmlns="http://www.w3.org/2000/svg" width="1200" height="900" viewBox="0 0 1200 900">
  <defs>
    <linearGradient id="bg" x1="0" y1="0" x2="1" y2="1">
      <stop offset="0" stop-color="#0b0620"/>
      <stop offset="1" stop-color="#140a2e"/>
    </linearGradient>
    <radialGradient id="glow" cx="30%" cy="20%" r="70%">
      <stop offset="0" stop-color="#a855f7" stop-opacity="0.55"/>
      <stop offset="1" stop-color="#000" stop-opacity="0"/>
    </radialGradient>
    <linearGradient id="screen" x1="0" y1="0" x2="0" y2="1">
      <stop offset="0" stop-color="#c4b5fd"/>
      <stop offset="1" stop-color="#7c3aed"/>
    </linearGradient>
    <linearGradient id="skin" x1="0" y1="0" x2="0" y2="1">
      <stop offset="0" stop-color="#f0d8c8"/>
      <stop offset="1" stop-color="#e6bfa8"/>
    </linearGradient>
    <linearGradient id="hoodie" x1="0" y1="0" x2="1" y2="1">
      <stop offset="0" stop-color="#2a125a"/>
      <stop offset="1" stop-color="#1a0f3b"/>
    </linearGradient>
    <filter id="shadow" x="-50%" y="-50%" width="200%" height="200%">
      <feDropShadow dx="0" dy="18" stdDeviation="18" flood-color="#000" flood-opacity="0.55"/>
    </filter>
  </defs>

  <rect width="1200" height="900" fill="url(#bg)"/>
  <rect width="1200" height="900" fill="url(#glow)"/>

  <g filter="url(#shadow)">
    <rect x="160" y="620" width="880" height="110" rx="28" fill="rgba(255,255,255,0.06)" stroke="rgba(196,181,253,0.18)"/>
  </g>

  <g transform="translate(650,170)">
    <rect x="-150" y="70" width="360" height="260" rx="28" fill="rgba(255,255,255,0.06)" stroke="rgba(196,181,253,0.20)"/>
    <rect x="-124" y="96" width="308" height="190" rx="18" fill="url(#screen)"/>
    <rect x="-40" y="336" width="160" height="28" rx="14" fill="rgba(255,255,255,0.08)" stroke="rgba(196,181,253,0.18)"/>
    <rect x="-12" y="364" width="104" height="64" rx="20" fill="rgba(255,255,255,0.06)" stroke="rgba(196,181,253,0.18)"/>
  </g>

  <g transform="translate(380,230)">
    <ellipse cx="200" cy="470" rx="240" ry="90" fill="rgba(0,0,0,0.35)"/>
    <g transform="translate(150,220)">
      <path d="M50,220 C70,140 160,120 210,150 C260,180 280,240 270,320 C260,395 220,450 150,458 C85,465 30,410 38,330 C42,285 45,255 50,220 Z" fill="url(#hoodie)"/>
      <path d="M70,250 C60,220 52,200 52,180 C52,120 105,70 170,70 C235,70 288,120 288,180 C288,200 280,220 270,250 C235,220 205,210 170,210 C135,210 105,220 70,250 Z" fill="#1a0f3b" opacity="0.95"/>
      <circle cx="170" cy="150" r="64" fill="url(#skin)"/>
      <path d="M132,150 C145,165 160,174 170,174 C180,174 195,165 208,150" fill="none" stroke="rgba(20,10,46,0.55)" stroke-width="6" stroke-linecap="round"/>
      <circle cx="148" cy="142" r="6" fill="rgba(20,10,46,0.65)"/>
      <circle cx="192" cy="142" r="6" fill="rgba(20,10,46,0.65)"/>
      <path d="M115,120 C140,92 205,92 230,120" fill="none" stroke="rgba(20,10,46,0.45)" stroke-width="10" stroke-linecap="round"/>
      <path d="M90,325 C120,280 180,280 210,325 C235,362 240,420 240,460 L100,460 C100,420 105,362 90,325 Z" fill="rgba(255,255,255,0.06)" stroke="rgba(196,181,253,0.16)"/>
      <path d="M70,310 C30,320 15,355 25,400 C35,445 70,465 95,450" fill="none" stroke="url(#hoodie)" stroke-width="42" stroke-linecap="round"/>
      <path d="M270,310 C310,320 325,355 315,400 C305,445 270,465 245,450" fill="none" stroke="url(#hoodie)" stroke-width="42" stroke-linecap="round"/>
      <path d="M95,450 C150,420 195,420 245,450" fill="none" stroke="rgba(196,181,253,0.35)" stroke-width="10" stroke-linecap="round"/>
    </g>

    <g transform="translate(530,420)">
      <rect x="-10" y="-20" width="210" height="140" rx="26" fill="rgba(255,255,255,0.05)" stroke="rgba(196,181,253,0.18)"/>
      <rect x="16" y="6" width="160" height="64" rx="16" fill="rgba(0,0,0,0.25)"/>
      <rect x="24" y="14" width="144" height="48" rx="12" fill="url(#screen)" opacity="0.75"/>
      <circle cx="190" cy="95" r="18" fill="rgba(168,85,247,0.35)" stroke="rgba(196,181,253,0.18)"/>
      <path d="M44,98 L78,98" stroke="rgba(196,181,253,0.50)" stroke-width="10" stroke-linecap="round"/>
      <path d="M44,118 L120,118" stroke="rgba(196,181,253,0.28)" stroke-width="10" stroke-linecap="round"/>
    </g>

    <g transform="translate(360,560)">
      <path d="M0,80 C120,10 260,10 380,80" fill="none" stroke="rgba(196,181,253,0.28)" stroke-width="18" stroke-linecap="round"/>
      <circle cx="40" cy="78" r="14" fill="rgba(168,85,247,0.45)"/>
      <circle cx="340" cy="78" r="14" fill="rgba(168,85,247,0.30)"/>
    </g>
  </g>

  <g opacity="0.55">
    <circle cx="980" cy="160" r="4" fill="#fff"/>
    <circle cx="1040" cy="240" r="3" fill="#fff"/>
    <circle cx="930" cy="310" r="2.5" fill="#fff"/>
    <circle cx="1080" cy="340" r="2.8" fill="#fff"/>
    <circle cx="860" cy="220" r="2.2" fill="#fff"/>
  </g>
</svg>
