<?xml version="1.0" encoding="UTF-8"?>
<svg xmlns="http://www.w3.org/2000/svg" viewBox="0 0 1400 900">
  <defs>
    <linearGradient id="bg2" x1="0" y1="0" x2="1" y2="1">
      <stop offset="0" stop-color="#0b0b12"/>
      <stop offset="1" stop-color="#17172a"/>
    </linearGradient>
    <radialGradient id="glow2" cx="55%" cy="18%" r="70%">
      <stop offset="0" stop-color="#a855f7" stop-opacity="0.45"/>
      <stop offset="1" stop-color="#000" stop-opacity="0"/>
    </radialGradient>
    <linearGradient id="screen2" x1="0" y1="0" x2="0" y2="1">
      <stop offset="0" stop-color="#f5f3ff"/>
      <stop offset="1" stop-color="#8b5cf6"/>
    </linearGradient>
    <filter id="shadow2" x="-50%" y="-50%" width="200%" height="200%">
      <feDropShadow dx="0" dy="22" stdDeviation="18" flood-color="#000" flood-opacity="0.55"/>
    </filter>
  </defs>

  <rect width="1400" height="900" fill="url(#bg2)"/>
  <rect width="1400" height="900" fill="url(#glow2)"/>

  <g filter="url(#shadow2)">
    <rect x="120" y="130" width="1160" height="640" rx="40" fill="rgba(255,255,255,0.05)" stroke="rgba(255,255,255,0.12)"/>
  </g>

  <g transform="translate(280,250)" filter="url(#shadow2)">
    <rect x="0" y="0" width="620" height="360" rx="34" fill="rgba(255,255,255,0.06)" stroke="rgba(255,255,255,0.12)"/>
    <rect x="50" y="50" width="520" height="240" rx="22" fill="url(#screen2)" opacity="0.92"/>
    <rect x="180" y="312" width="260" height="26" rx="13" fill="rgba(255,255,255,0.08)"/>
    <path d="M95 115 L245 115" stroke="rgba(20,10,46,0.28)" stroke-width="16" stroke-linecap="round"/>
    <path d="M95 165 L380 165" stroke="rgba(20,10,46,0.20)" stroke-width="16" stroke-linecap="round"/>
    <path d="M95 215 L330 215" stroke="rgba(20,10,46,0.16)" stroke-width="16" stroke-linecap="round"/>
  </g>

  <g transform="translate(980,260)" filter="url(#shadow2)">
    <ellipse cx="140" cy="400" rx="170" ry="70" fill="rgba(0,0,0,0.28)"/>
    <circle cx="140" cy="120" r="66" fill="#f0d8c8"/>
    <rect x="80" y="190" width="120" height="210" rx="34" fill="rgba(255,255,255,0.06)" stroke="rgba(255,255,255,0.12)"/>
    <path d="M70 250 C35 265 30 312 48 350" stroke="rgba(255,255,255,0.12)" stroke-width="40" stroke-linecap="round"/>
    <path d="M210 250 C245 265 250 312 232 350" stroke="rgba(255,255,255,0.12)" stroke-width="40" stroke-linecap="round"/>
    <path d="M58 360 L118 320" stroke="rgba(245,243,255,0.60)" stroke-width="14" stroke-linecap="round"/>
    <path d="M222 360 L162 320" stroke="rgba(245,243,255,0.60)" stroke-width="14" stroke-linecap="round"/>
    <circle cx="118" cy="320" r="10" fill="rgba(168,85,247,0.55)"/>
    <circle cx="162" cy="320" r="10" fill="rgba(168,85,247,0.55)"/>
  </g>

  <g transform="translate(980,690)" opacity="0.9">
    <path d="M40 80 L160 20" stroke="rgba(245,243,255,0.70)" stroke-width="14" stroke-linecap="round"/>
    <circle cx="160" cy="20" r="18" fill="rgba(168,85,247,0.55)"/>
    <path d="M70 90 L190 30" stroke="rgba(245,243,255,0.35)" stroke-width="14" stroke-linecap="round"/>
    <circle cx="190" cy="30" r="12" fill="rgba(168,85,247,0.35)"/>
  </g>
</svg>
