<?xml version="1.0" encoding="UTF-8"?>
<svg xmlns="http://www.w3.org/2000/svg" width="1200" height="800" viewBox="0 0 1200 800">
  <defs>
    <linearGradient id="bg" x1="0" y1="0" x2="1" y2="1">
      <stop offset="0" stop-color="#0b0620"/>
      <stop offset="1" stop-color="#140a2e"/>
    </linearGradient>
    <radialGradient id="glow" cx="50%" cy="20%" r="70%">
      <stop offset="0" stop-color="#a855f7" stop-opacity="0.45"/>
      <stop offset="1" stop-color="#000" stop-opacity="0"/>
    </radialGradient>
    <linearGradient id="panel" x1="0" y1="0" x2="0" y2="1">
      <stop offset="0" stop-color="rgba(255,255,255,0.10)"/>
      <stop offset="1" stop-color="rgba(255,255,255,0.04)"/>
    </linearGradient>
    <linearGradient id="screen" x1="0" y1="0" x2="0" y2="1">
      <stop offset="0" stop-color="#c4b5fd"/>
      <stop offset="1" stop-color="#7c3aed"/>
    </linearGradient>
  </defs>
  <rect width="1200" height="800" fill="url(#bg)"/>
  <rect width="1200" height="800" fill="url(#glow)"/>

  <rect x="130" y="150" width="940" height="520" rx="36" fill="url(#panel)" stroke="rgba(196,181,253,0.18)"/>

  <g transform="translate(220,220)">
    <rect x="0" y="0" width="520" height="340" rx="28" fill="rgba(0,0,0,0.22)" stroke="rgba(196,181,253,0.18)"/>
    <rect x="28" y="28" width="464" height="230" rx="18" fill="url(#screen)" opacity="0.88"/>
    <rect x="180" y="274" width="160" height="22" rx="11" fill="rgba(255,255,255,0.08)"/>
    <rect x="220" y="300" width="80" height="40" rx="14" fill="rgba(255,255,255,0.06)" stroke="rgba(196,181,253,0.18)"/>
    <path d="M70 85 L190 85" stroke="rgba(255,255,255,0.60)" stroke-width="12" stroke-linecap="round"/>
    <path d="M70 120 L290 120" stroke="rgba(255,255,255,0.32)" stroke-width="12" stroke-linecap="round"/>
    <path d="M70 155 L250 155" stroke="rgba(255,255,255,0.26)" stroke-width="12" stroke-linecap="round"/>
  </g>

  <g transform="translate(820,240)">
    <circle cx="120" cy="90" r="56" fill="rgba(245,243,255,0.88)"/>
    <path d="M120 48 C160 62 170 104 154 138 C142 164 118 174 92 166 C64 156 52 125 58 96 C68 60 96 46 120 48 Z" fill="#e9d5ff"/>
    <rect x="70" y="150" width="100" height="170" rx="28" fill="#2a125a"/>
    <rect x="55" y="190" width="70" height="28" rx="14" fill="#7c3aed" opacity="0.55"/>
    <rect x="115" y="190" width="70" height="28" rx="14" fill="#a855f7" opacity="0.45"/>
    <path d="M70 260 C30 250 20 295 35 330" stroke="#2a125a" stroke-width="34" stroke-linecap="round"/>
    <path d="M170 260 C210 250 220 295 205 330" stroke="#2a125a" stroke-width="34" stroke-linecap="round"/>
    <path d="M26 338 L94 300" stroke="rgba(196,181,253,0.70)" stroke-width="14" stroke-linecap="round"/>
    <path d="M210 338 L146 300" stroke="rgba(196,181,253,0.70)" stroke-width="14" stroke-linecap="round"/>
  </g>

  <g transform="translate(820,520)">
    <path d="M40 80 L150 20" stroke="rgba(196,181,253,0.75)" stroke-width="14" stroke-linecap="round"/>
    <circle cx="150" cy="20" r="18" fill="rgba(168,85,247,0.55)"/>
    <path d="M70 90 L180 30" stroke="rgba(196,181,253,0.35)" stroke-width="14" stroke-linecap="round"/>
    <circle cx="180" cy="30" r="12" fill="rgba(168,85,247,0.35)"/>
  </g>
</svg>
